<?xml version="1.0" encoding="UTF-8"?><svg id="Layer_1" xmlns="http://www.w3.org/2000/svg" viewBox="0 0 1920 1080"><defs><style>.cls-1,.cls-2{fill:#f4e4c3;}.cls-3{fill:#2e2e2f;}.cls-4,.cls-2{opacity:.5;}</style></defs><rect class="cls-3" width="1920" height="1080"/><g class="cls-4"><path class="cls-1" d="m759.41,519.15c-8.23,0-14.92,6.69-14.92,14.92,0,.35.03.69.05,1.03.81.45,1.36.97.49,1.85.87-.87.33-1.39-.49-1.85.53,7.74,6.99,13.89,14.86,13.89s14.91-6.69,14.91-14.91-6.69-14.92-14.91-14.92Zm0,27.67c-7.04,0-12.76-5.72-12.76-12.76s5.72-12.76,12.76-12.76,12.76,5.72,12.76,12.76-5.72,12.76-12.76,12.76Z"/><path class="cls-1" d="m961.16,661.69c-5.94,0-10.78-4.84-10.78-10.78s4.84-10.78,10.78-10.78,10.78,4.84,10.78,10.78-4.84,10.78-10.78,10.78Zm0-19.41c-4.76,0-8.63,3.87-8.63,8.63s3.87,8.63,8.63,8.63,8.63-3.87,8.63-8.63-3.87-8.63-8.63-8.63Z"/><path class="cls-1" d="m900.5,574.82c-6.03-10.02-9.34-21.23-9.93-32.56-.17,0-.34-.07-.54-.21.56,11.57,3.93,23.02,10.12,33.24.04-.2.15-.36.35-.46Z"/><g><path class="cls-1" d="m1013.83,491.82c-.99-1.12-2.01-2.23-3.08-3.3-27.61-27.61-72.52-27.61-100.13,0-11.85,11.85-18.6,26.88-20.27,42.36.18-.06.35-.04.54.06,0-.04,0-.09,0-.13,1.69-15.32,8.39-30.18,20.11-41.9,27.4-27.4,71.97-27.4,99.37,0,1.06,1.06,2.07,2.15,3.04,3.26.13-.12.28-.23.42-.34Z"/><path class="cls-1" d="m1021.12,501.73c-.15.1-.32.17-.47.26,7.62,12.5,11,26.88,10.11,41.05.17-.02.34.04.53.16.93-14.31-2.47-28.84-10.16-41.47Z"/></g><path class="cls-1" d="m1029.74,553.87c-.18-.12-.35-.17-.51-.15-2.77,12.67-9.03,24.72-18.86,34.55-24.09,24.09-61.46,26.99-88.76,8.71l-.39.39c27.51,18.49,65.22,15.59,89.53-8.71,9.9-9.9,16.2-22.02,18.99-34.77Z"/><path class="cls-1" d="m944.22,606.96c-.06.21-.03.4.08.57.82.2,1.65.36,2.47.53v-.55c-.85-.18-1.71-.35-2.56-.56Z"/><path class="cls-1" d="m961.16,572.11c-18.38,0-33.33-14.95-33.33-33.33s14.95-33.34,33.33-33.34,33.33,14.95,33.33,33.34-14.95,33.33-33.33,33.33Zm0-66.13c-18.08,0-32.8,14.71-32.8,32.8s14.71,32.79,32.8,32.79,32.79-14.71,32.79-32.79-14.71-32.8-32.79-32.8Z"/><path class="cls-1" d="m998.53,736.26v.58c.32-.06.64-.1.95-.16l-.5-.5c-.15.03-.31.05-.46.08Z"/><path class="cls-1" d="m1103.24,679.47c38.06-38.07,59.03-88.67,59.03-142.51s-20.96-104.44-59.03-142.51c-38.07-38.06-88.67-59.03-142.51-59.03s-104.44,20.96-142.5,59.03c-28.39,28.39-47.26,63.77-55.02,102.25h.58s0,.03,0,.05c18.68-91.63,99.89-160.79,196.95-160.79,110.83,0,200.99,90.17,200.99,200.99s-90.17,200.99-200.99,200.99c-97.9,0-179.66-70.36-197.41-163.16l-.5.5c7.51,39.23,26.53,75.31,55.4,104.18,38.07,38.06,88.68,59.03,142.5,59.03s104.44-20.96,142.51-59.03Z"/><path class="cls-1" d="m1017.69,502.78c-3.41,0-6.18-2.77-6.18-6.18s2.77-6.18,6.18-6.18,6.18,2.77,6.18,6.18-2.77,6.18-6.18,6.18Zm0-10.2c-2.22,0-4.02,1.8-4.02,4.02s1.8,4.02,4.02,4.02,4.02-1.8,4.02-4.02-1.8-4.02-4.02-4.02Z"/><path class="cls-1" d="m961.16,406.38c-3.89,0-7.05-3.16-7.05-7.05s3.16-7.05,7.05-7.05,7.05,3.16,7.05,7.05-3.16,7.05-7.05,7.05Zm0-12.49c-3,0-5.44,2.44-5.44,5.44s2.44,5.44,5.44,5.44,5.44-2.44,5.44-5.44-2.44-5.44-5.44-5.44Z"/><path class="cls-1" d="m909.58,593.19c-3.41,0-6.18-2.77-6.18-6.18s2.77-6.18,6.18-6.18,6.18,2.77,6.18,6.18-2.77,6.18-6.18,6.18Zm0-10.2c-2.22,0-4.02,1.8-4.02,4.02s1.8,4.02,4.02,4.02,4.02-1.8,4.02-4.02-1.8-4.02-4.02-4.02Z"/><path class="cls-1" d="m975.35,444.34c-.12.09-1.8-1.82-4.45-5-1.31-1.6-2.87-3.51-4.6-5.62-1.59-1.98-3.33-4.16-5.17-6.45h0c-2.05,2.36-4,4.6-5.78,6.64-1.85,2.08-3.52,3.95-4.92,5.53-2.82,3.13-4.63,5.01-4.74,4.91-.11-.1,1.49-2.16,4.16-5.41,1.35-1.62,2.96-3.54,4.74-5.68,1.86-2.18,3.9-4.57,6.05-7.08l.52-.61c2.1,2.67,4.09,5.22,5.91,7.53,1.67,2.17,3.16,4.13,4.42,5.77,2.49,3.3,3.97,5.38,3.85,5.47Z"/><path class="cls-1" d="m971.18,460.38c-.12.09-1.34-1.27-3.23-3.55-.93-1.15-2.04-2.52-3.28-4.04-1.08-1.38-2.28-2.89-3.53-4.49h0c-1.4,1.64-2.73,3.2-3.94,4.62-1.31,1.5-2.5,2.84-3.49,3.97-2.01,2.24-3.31,3.58-3.43,3.48-.11-.1.98-1.61,2.84-3.97.94-1.17,2.07-2.57,3.31-4.12,1.35-1.63,2.83-3.41,4.39-5.29l.34-.41c1.52,1.99,2.97,3.88,4.28,5.6,1.16,1.58,2.21,2.99,3.09,4.18,1.73,2.4,2.75,3.92,2.63,4.01Z"/><path class="cls-1" d="m960.73,378.1c-9.85,0-17.86-8.01-17.86-17.86s8.01-17.86,17.86-17.86,17.86,8.01,17.86,17.86-8.01,17.86-17.86,17.86Zm0-34.1c-8.95,0-16.24,7.29-16.24,16.24s7.29,16.24,16.24,16.24,16.24-7.29,16.24-16.24-7.29-16.24-16.24-16.24Z"/><path class="cls-1" d="m961.16,318.11c-17.19,0-31.18-13.99-31.18-31.18s13.99-31.18,31.18-31.18,31.18,13.99,31.18,31.18-13.98,31.18-31.18,31.18Zm0-60.74c-16.3,0-29.56,13.26-29.56,29.56s13.26,29.56,29.56,29.56,29.56-13.26,29.56-29.56-13.26-29.56-29.56-29.56Z"/><path class="cls-1" d="m961.16,149.64c-5.7,0-10.33-4.64-10.33-10.33s4.63-10.33,10.33-10.33,10.33,4.63,10.33,10.33-4.63,10.33-10.33,10.33Zm0-19.05c-4.81,0-8.72,3.91-8.72,8.72s3.91,8.72,8.72,8.72,8.71-3.91,8.71-8.72-3.91-8.72-8.71-8.72Z"/><path class="cls-1" d="m961.16,157.86c-10.23,0-18.55-8.32-18.55-18.55s8.32-18.55,18.55-18.55,18.55,8.32,18.55,18.55-8.32,18.55-18.55,18.55Zm0-35.49c-9.34,0-16.94,7.6-16.94,16.94s7.6,16.94,16.94,16.94,16.94-7.6,16.94-16.94-7.6-16.94-16.94-16.94Z"/><path class="cls-1" d="m961.16,683.07c-2.85,0-5.17-2.32-5.17-5.17s2.32-5.17,5.17-5.17,5.17,2.32,5.17,5.17-2.32,5.17-5.17,5.17Zm0-8.17c-1.66,0-3.01,1.35-3.01,3.01s1.35,3.01,3.01,3.01,3.01-1.35,3.01-3.01-1.35-3.01-3.01-3.01Z"/><path class="cls-1" d="m961.52,756.93c-11.99,0-21.74-9.75-21.74-21.74s9.75-21.74,21.74-21.74,21.75,9.75,21.75,21.74-9.75,21.74-21.75,21.74Zm0-41.33c-10.8,0-19.59,8.79-19.59,19.59s8.79,19.59,19.59,19.59,19.59-8.79,19.59-19.59-8.79-19.59-19.59-19.59Z"/><path class="cls-1" d="m961.52,790.89c-3.67,0-6.65-2.98-6.65-6.65s2.98-6.65,6.65-6.65,6.65,2.98,6.65,6.65-2.98,6.65-6.65,6.65Zm0-11.14c-2.48,0-4.49,2.02-4.49,4.49s2.02,4.49,4.49,4.49,4.49-2.02,4.49-4.49-2.02-4.49-4.49-4.49Z"/><path class="cls-1" d="m964.98,858.51c0,2.11-1.71,3.82-3.82,3.82s-3.82-1.71-3.82-3.82,1.71-3.82,3.82-3.82,3.82,1.71,3.82,3.82Z"/><path class="cls-1" d="m963.86,1043.83c0,1.49-1.21,2.7-2.7,2.7s-2.7-1.21-2.7-2.7,1.21-2.7,2.7-2.7,2.7,1.21,2.7,2.7Z"/><path class="cls-1" d="m976.93,976.44c0,2.11-1.71,3.82-3.82,3.82s-3.82-1.71-3.82-3.82,1.71-3.82,3.82-3.82,3.82,1.71,3.82,3.82Z"/><path class="cls-1" d="m975.28,880.82c-1.74,1.2-4.12.76-5.31-.98-1.2-1.74-.76-4.12.98-5.31,1.74-1.2,4.12-.76,5.31.98,1.2,1.74.76,4.12-.98,5.31Z"/><path class="cls-1" d="m938.07,898.09c0,2.11-1.71,3.82-3.82,3.82s-3.82-1.71-3.82-3.82,1.71-3.82,3.82-3.82,3.82,1.71,3.82,3.82Z"/><path class="cls-1" d="m1163.59,513.18c0,1.53-1.24,2.78-2.78,2.78s-2.78-1.24-2.78-2.78,1.24-2.78,2.78-2.78,2.78,1.24,2.78,2.78Z"/><path class="cls-1" d="m826.36,391.63c0,1.39-1.13,2.51-2.51,2.51s-2.51-1.12-2.51-2.51,1.13-2.51,2.51-2.51,2.51,1.12,2.51,2.51Z"/><path class="cls-1" d="m818.74,489.9c0,1.71-1.39,3.1-3.1,3.1s-3.1-1.39-3.1-3.1,1.39-3.1,3.1-3.1,3.1,1.39,3.1,3.1Z"/><path class="cls-1" d="m841.88,698.38c0,1.85-1.5,3.34-3.34,3.34s-3.34-1.5-3.34-3.34,1.5-3.34,3.34-3.34,3.34,1.5,3.34,3.34Z"/><g><circle class="cls-1" cx="961.16" cy="814.07" r="1.08"/><circle class="cls-1" cx="961.16" cy="829.17" r="1.08"/></g><ellipse class="cls-1" cx="961.16" cy="932.55" rx=".54" ry="74.05"/><ellipse class="cls-1" cx="973.11" cy="927.05" rx=".54" ry="49.38"/><g><circle class="cls-1" cx="960.79" cy="188.94" r="1.08"/><circle class="cls-1" cx="960.79" cy="203.53" r="1.08"/><circle class="cls-1" cx="960.79" cy="218.12" r="1.08"/><circle class="cls-1" cx="960.79" cy="232.71" r="1.08"/></g><g><circle class="cls-1" cx="960.53" cy="77.55" r="1.08"/><circle class="cls-1" cx="960.53" cy="91.73" r="1.08"/><circle class="cls-1" cx="960.53" cy="105.9" r="1.08"/></g></g><path class="cls-2" d="m1109.24,577.98c-17.37,65.53-77.17,113.99-148.09,113.99-84.47,0-153.19-68.72-153.19-153.19s68.72-153.19,153.19-153.19c70.92,0,130.72,48.45,148.09,113.99h.6c-6.82-26.05-20.43-49.95-39.98-69.5-29.04-29.04-67.64-45.03-108.7-45.03s-79.67,15.99-108.71,45.03-45.03,67.64-45.03,108.71,15.99,79.67,45.03,108.7c29.04,29.04,67.64,45.03,108.71,45.03s79.67-15.99,108.7-45.03c19.55-19.55,33.15-43.45,39.98-69.5h-.6Z"/><path class="cls-2" d="m1089.35,536.96c0-35.36-14.21-67.45-37.19-90.91h-.74c23.1,23.4,37.4,55.51,37.4,90.91,0,71.39-58.08,129.47-129.47,129.47s-129.47-58.08-129.47-129.47c0-35.4,14.29-67.52,37.4-90.91h-.74c-22.98,23.46-37.19,55.55-37.19,90.91,0,71.69,58.32,130.01,130.01,130.01s130.01-58.32,130.01-130.01Z"/><path class="cls-2" d="m993.74,559.01c-6.79,10.89-18.84,18.17-32.59,18.17-21.18,0-38.41-17.23-38.41-38.41s17.23-38.41,38.41-38.41c13.75,0,25.8,7.29,32.59,18.17h.63c-6.85-11.2-19.16-18.71-33.22-18.71-21.48,0-38.95,17.47-38.95,38.95s17.47,38.95,38.95,38.95c14.06,0,26.37-7.51,33.22-18.71h-.63Z"/></svg>